# xmcd CD database file
#
# Track frame offsets:
#	183
#	23433
#	32045
#	48523
#	57900
#	68200
#	83730
#	101815
#	110500
#	116658
#	124213
#	156728
#	164978
#	200300
#
# Disc length: 2797 seconds
#
# Revision: 3
# Processed by: cddbd v1.5.1PL0 Copyright (c) Steve Scherf et al.
# Submitted via: CDex 1.51
#
DISCID=c80aeb0e
DTITLE=Various Artist - Blues in the Mississippi Night
DYEAR=1957
DGENRE=Blues
TTITLE0=Memphis Slim - Life is like that
TTITLE1=Unidentified Group - And Pitied Every Groan
TTITLE2=Sonny Boy Williamson and Memphis Slim - My Black Name
TTITLE3=Memphis Slim - Ratty Ratty Section
TTITLE4=Memphis Slim and Big Bill Broonzy - Worksongs
TTITLE5=Memphis Slim and Big Bill Broonzy - Have You Ever Been Nashville
TTITLE6=Memphis Slim and Sonny Boy Williamson - Stacker Lee
TTITLE7=Unidentified Convict Group - 'Berta
TTITLE8=Unidentified Convict Group - I Ain't Got Long
TTITLE9=Unidentified Convict Group - Don't You Hear Your Poor Mother Calling
TTITLE10=Memphis Slim - Piano Blues
TTITLE11=Unidentified Female Vocalist - Another Man Done Gone
TTITLE12=Unidentified Female Vocalist - Another Man Done Gone (2)
TTITLE13=Memphis Slim - Piano Blues (2)
EXTD=YEAR: 1957
EXTT0=
EXTT1=
EXTT2=
EXTT3=
EXTT4=
EXTT5=
EXTT6=
EXTT7=
EXTT8=
EXTT9=
EXTT10=
EXTT11=
EXTT12=
EXTT13=
PLAYORDER=
